<svg xmlns="http://www.w3.org/2000/svg" xmlns:xlink="http://www.w3.org/1999/xlink" width="800" zoomAndPan="magnify" viewBox="0 0 600 599.999999" height="800" preserveAspectRatio="xMidYMid meet" version="1.0"><defs><g/><clipPath id="132452f413"><path d="M 24.601562 224.835938 L 185.851562 224.835938 L 185.851562 386.085938 L 24.601562 386.085938 Z M 24.601562 224.835938 " clip-rule="nonzero"/></clipPath></defs><g clip-path="url(#132452f413)"><path fill="#03989e" d="M 105.226562 224.835938 L 185.851562 305.460938 L 105.226562 386.085938 L 24.601562 305.460938 L 105.226562 224.835938 " fill-opacity="1" fill-rule="nonzero"/></g><g fill="#ffffff" fill-opacity="1"><g transform="translate(203.594055, 342.178541)"><g><path d="M 33.703125 -68.828125 C 44.878906 -68.828125 53.40625 -65.9375 59.28125 -60.15625 C 65.164062 -54.382812 68.109375 -45.800781 68.109375 -34.40625 C 68.109375 -23.050781 65.164062 -14.476562 59.28125 -8.6875 C 53.40625 -2.894531 44.878906 0 33.703125 0 L 8.9375 0 L 8.9375 -68.828125 Z M 32.90625 -11.4375 C 40 -11.4375 45.300781 -13.25 48.8125 -16.875 C 52.332031 -20.5 54.09375 -26.34375 54.09375 -34.40625 C 54.09375 -42.476562 52.332031 -48.320312 48.8125 -51.9375 C 45.300781 -55.5625 40 -57.375 32.90625 -57.375 L 22.546875 -57.375 L 22.546875 -11.4375 Z M 32.90625 -11.4375 "/></g></g></g><g fill="#ffffff" fill-opacity="1"><g transform="translate(277.116689, 342.178541)"><g><path d="M 20.234375 0.984375 C 16.910156 0.984375 14.023438 0.375 11.578125 -0.84375 C 9.128906 -2.070312 7.242188 -3.867188 5.921875 -6.234375 C 4.609375 -8.609375 3.953125 -11.457031 3.953125 -14.78125 C 3.953125 -17.851562 4.609375 -20.429688 5.921875 -22.515625 C 7.242188 -24.609375 9.285156 -26.320312 12.046875 -27.65625 C 14.804688 -28.988281 18.414062 -30.015625 22.875 -30.734375 C 25.976562 -31.234375 28.335938 -31.78125 29.953125 -32.375 C 31.578125 -32.976562 32.671875 -33.65625 33.234375 -34.40625 C 33.796875 -35.164062 34.078125 -36.125 34.078125 -37.28125 C 34.078125 -38.945312 33.492188 -40.21875 32.328125 -41.09375 C 31.171875 -41.96875 29.242188 -42.40625 26.546875 -42.40625 C 23.660156 -42.40625 20.914062 -41.757812 18.3125 -40.46875 C 15.707031 -39.1875 13.445312 -37.5 11.53125 -35.40625 L 10.59375 -35.40625 L 5.125 -43.640625 C 7.757812 -46.554688 10.976562 -48.828125 14.78125 -50.453125 C 18.582031 -52.085938 22.722656 -52.90625 27.203125 -52.90625 C 34.078125 -52.90625 39.050781 -51.445312 42.125 -48.53125 C 45.207031 -45.613281 46.75 -41.472656 46.75 -36.109375 L 46.75 -13.5625 C 46.75 -11.238281 47.765625 -10.078125 49.796875 -10.078125 C 50.585938 -10.078125 51.359375 -10.21875 52.109375 -10.5 L 52.765625 -10.3125 L 53.703125 -1.21875 C 52.984375 -0.75 51.976562 -0.363281 50.6875 -0.0625 C 49.40625 0.226562 48 0.375 46.46875 0.375 C 43.351562 0.375 40.925781 -0.21875 39.1875 -1.40625 C 37.445312 -2.601562 36.203125 -4.472656 35.453125 -7.015625 L 34.453125 -7.109375 C 31.910156 -1.710938 27.171875 0.984375 20.234375 0.984375 Z M 24.390625 -8.75 C 27.398438 -8.75 29.804688 -9.757812 31.609375 -11.78125 C 33.410156 -13.8125 34.3125 -16.628906 34.3125 -20.234375 L 34.3125 -25.515625 L 33.421875 -25.703125 C 32.640625 -25.078125 31.613281 -24.550781 30.34375 -24.125 C 29.070312 -23.695312 27.242188 -23.28125 24.859375 -22.875 C 22.035156 -22.40625 20.003906 -21.597656 18.765625 -20.453125 C 17.523438 -19.304688 16.90625 -17.679688 16.90625 -15.578125 C 16.90625 -13.347656 17.5625 -11.648438 18.875 -10.484375 C 20.195312 -9.328125 22.035156 -8.75 24.390625 -8.75 Z M 24.390625 -8.75 "/></g></g></g><g fill="#ffffff" fill-opacity="1"><g transform="translate(331.858573, 342.178541)"><g><path d="M 35.828125 -12.375 L 39.21875 -2.734375 C 37.800781 -1.566406 36.023438 -0.65625 33.890625 0 C 31.753906 0.65625 29.335938 0.984375 26.640625 0.984375 C 21.023438 0.984375 16.757812 -0.539062 13.84375 -3.59375 C 10.925781 -6.65625 9.46875 -11.109375 9.46875 -16.953125 L 9.46875 -41.5625 L 1.546875 -41.5625 L 1.546875 -51.921875 L 9.46875 -51.921875 L 9.46875 -62.09375 L 22.5 -64.203125 L 22.5 -51.921875 L 37.234375 -51.921875 L 37.234375 -41.5625 L 22.5 -41.5625 L 22.5 -17.890625 C 22.5 -15.316406 23.03125 -13.441406 24.09375 -12.265625 C 25.164062 -11.085938 26.722656 -10.5 28.765625 -10.5 C 31.085938 -10.5 33.109375 -11.125 34.828125 -12.375 Z M 35.828125 -12.375 "/></g></g></g><g fill="#ffffff" fill-opacity="1"><g transform="translate(372.197175, 342.178541)"><g><path d="M 20.234375 0.984375 C 16.910156 0.984375 14.023438 0.375 11.578125 -0.84375 C 9.128906 -2.070312 7.242188 -3.867188 5.921875 -6.234375 C 4.609375 -8.609375 3.953125 -11.457031 3.953125 -14.78125 C 3.953125 -17.851562 4.609375 -20.429688 5.921875 -22.515625 C 7.242188 -24.609375 9.285156 -26.320312 12.046875 -27.65625 C 14.804688 -28.988281 18.414062 -30.015625 22.875 -30.734375 C 25.976562 -31.234375 28.335938 -31.78125 29.953125 -32.375 C 31.578125 -32.976562 32.671875 -33.65625 33.234375 -34.40625 C 33.796875 -35.164062 34.078125 -36.125 34.078125 -37.28125 C 34.078125 -38.945312 33.492188 -40.21875 32.328125 -41.09375 C 31.171875 -41.96875 29.242188 -42.40625 26.546875 -42.40625 C 23.660156 -42.40625 20.914062 -41.757812 18.3125 -40.46875 C 15.707031 -39.1875 13.445312 -37.5 11.53125 -35.40625 L 10.59375 -35.40625 L 5.125 -43.640625 C 7.757812 -46.554688 10.976562 -48.828125 14.78125 -50.453125 C 18.582031 -52.085938 22.722656 -52.90625 27.203125 -52.90625 C 34.078125 -52.90625 39.050781 -51.445312 42.125 -48.53125 C 45.207031 -45.613281 46.75 -41.472656 46.75 -36.109375 L 46.75 -13.5625 C 46.75 -11.238281 47.765625 -10.078125 49.796875 -10.078125 C 50.585938 -10.078125 51.359375 -10.21875 52.109375 -10.5 L 52.765625 -10.3125 L 53.703125 -1.21875 C 52.984375 -0.75 51.976562 -0.363281 50.6875 -0.0625 C 49.40625 0.226562 48 0.375 46.46875 0.375 C 43.351562 0.375 40.925781 -0.21875 39.1875 -1.40625 C 37.445312 -2.601562 36.203125 -4.472656 35.453125 -7.015625 L 34.453125 -7.109375 C 31.910156 -1.710938 27.171875 0.984375 20.234375 0.984375 Z M 24.390625 -8.75 C 27.398438 -8.75 29.804688 -9.757812 31.609375 -11.78125 C 33.410156 -13.8125 34.3125 -16.628906 34.3125 -20.234375 L 34.3125 -25.515625 L 33.421875 -25.703125 C 32.640625 -25.078125 31.613281 -24.550781 30.34375 -24.125 C 29.070312 -23.695312 27.242188 -23.28125 24.859375 -22.875 C 22.035156 -22.40625 20.003906 -21.597656 18.765625 -20.453125 C 17.523438 -19.304688 16.90625 -17.679688 16.90625 -15.578125 C 16.90625 -13.347656 17.5625 -11.648438 18.875 -10.484375 C 20.195312 -9.328125 22.035156 -8.75 24.390625 -8.75 Z M 24.390625 -8.75 "/></g></g></g><g fill="#ffffff" fill-opacity="1"><g transform="translate(426.939047, 342.178541)"><g><path d="M 53.328125 0 L 2.828125 0 L 2.828125 -12 L 37.328125 -56.4375 L 37 -57.421875 L 4.1875 -57.421875 L 4.1875 -68.828125 L 53 -68.828125 L 53 -56.8125 L 18.5 -12.375 L 18.828125 -11.390625 L 53.328125 -11.390625 Z M 53.328125 0 "/></g></g></g><g fill="#ffffff" fill-opacity="1"><g transform="translate(483.140087, 342.178541)"><g><path d="M 51.3125 -23.015625 L 17.984375 -22.921875 C 18.359375 -18.429688 19.632812 -15.164062 21.8125 -13.125 C 24 -11.09375 26.988281 -10.078125 30.78125 -10.078125 C 33.769531 -10.078125 36.1875 -10.632812 38.03125 -11.75 C 39.882812 -12.863281 41.375 -14.550781 42.5 -16.8125 L 43.5 -16.8125 L 52.15625 -11.25 C 50.457031 -7.613281 47.898438 -4.664062 44.484375 -2.40625 C 41.066406 -0.144531 36.5 0.984375 30.78125 0.984375 C 25.414062 0.984375 20.78125 -0.03125 16.875 -2.0625 C 12.96875 -4.101562 9.953125 -7.140625 7.828125 -11.171875 C 5.710938 -15.210938 4.65625 -20.132812 4.65625 -25.9375 C 4.65625 -31.832031 5.769531 -36.804688 8 -40.859375 C 10.226562 -44.910156 13.238281 -47.929688 17.03125 -49.921875 C 20.832031 -51.910156 25.101562 -52.90625 29.84375 -52.90625 C 37.1875 -52.90625 42.8125 -50.957031 46.71875 -47.0625 C 50.625 -43.175781 52.578125 -37.46875 52.578125 -29.9375 C 52.578125 -27.207031 52.484375 -25.085938 52.296875 -23.578125 Z M 40.109375 -31.4375 C 39.984375 -35.394531 39.0625 -38.273438 37.34375 -40.078125 C 35.632812 -41.890625 33.132812 -42.796875 29.84375 -42.796875 C 23.25 -42.796875 19.375 -39.007812 18.21875 -31.4375 Z M 40.109375 -31.4375 "/></g></g></g><g fill="#ffffff" fill-opacity="1"><g transform="translate(539.576463, 342.178541)"><g><path d="M 21.5625 0.984375 C 16.882812 0.984375 13.3125 -0.273438 10.84375 -2.796875 C 8.382812 -5.328125 7.15625 -9.164062 7.15625 -14.3125 L 7.15625 -72.78125 L 20.1875 -72.78125 L 20.1875 -14.828125 C 20.1875 -11.660156 21.507812 -10.078125 24.15625 -10.078125 C 24.90625 -10.078125 25.703125 -10.203125 26.546875 -10.453125 L 27.203125 -10.265625 L 28.390625 -0.234375 C 27.660156 0.140625 26.695312 0.4375 25.5 0.65625 C 24.3125 0.875 23 0.984375 21.5625 0.984375 Z M 21.5625 0.984375 "/></g></g></g></svg>