<svg width="145" height="33" viewBox="0 0 145 33" fill="none" xmlns="http://www.w3.org/2000/svg">
<g clip-path="url(#clip0)">
<path d="M42.4541 16.8932C43.0888 16.8932 43.642 16.816 44.1138 16.6616C44.5855 16.4987 44.9758 16.2714 45.2845 15.9798C45.6019 15.6796 45.8377 15.3193 45.9921 14.8991C46.1465 14.4702 46.2237 13.9942 46.2237 13.471C46.2237 12.9735 46.1465 12.5232 45.9921 12.1201C45.8377 11.717 45.6062 11.3739 45.2974 11.0909C44.9886 10.8078 44.5984 10.5934 44.1266 10.4476C43.6549 10.2932 43.0974 10.216 42.4541 10.216H39.8681V16.8932H42.4541ZM42.4541 7.53996C43.6978 7.53996 44.7742 7.68577 45.6834 7.97739C46.5925 8.269 47.343 8.67641 47.9348 9.19961C48.5266 9.72281 48.9641 10.3489 49.2471 11.078C49.5387 11.807 49.6845 12.6047 49.6845 13.471C49.6845 14.3716 49.5345 15.1993 49.2343 15.954C48.9341 16.7002 48.4838 17.3435 47.8834 17.8839C47.283 18.4242 46.5282 18.8445 45.619 19.1447C44.7184 19.4449 43.6635 19.595 42.4541 19.595H39.8681V26.1436H36.4073V7.53996H42.4541ZM55.0028 7.02533V26.1436H51.8251V7.02533H55.0028ZM65.1421 20.5084C64.2244 20.5513 63.4524 20.6328 62.8263 20.7529C62.2002 20.8644 61.6984 21.0102 61.321 21.1903C60.9437 21.3704 60.6735 21.5806 60.5105 21.8207C60.3476 22.0609 60.2661 22.3225 60.2661 22.6055C60.2661 23.163 60.429 23.5619 60.755 23.802C61.0895 24.0422 61.5226 24.1623 62.0544 24.1623C62.7062 24.1623 63.268 24.0465 63.7398 23.8149C64.2201 23.5747 64.6875 23.2145 65.1421 22.7342V20.5084ZM57.8602 14.7833C59.3783 13.3938 61.2053 12.699 63.3409 12.699C64.1129 12.699 64.8033 12.8277 65.4123 13.085C66.0213 13.3337 66.5359 13.6854 66.9562 14.14C67.3764 14.586 67.6938 15.1221 67.9082 15.7482C68.1312 16.3743 68.2427 17.0605 68.2427 17.8067V26.1436H66.8018C66.5016 26.1436 66.27 26.1007 66.107 26.0149C65.9441 25.9206 65.8154 25.7361 65.7211 25.4617L65.438 24.5096C65.1035 24.8098 64.7776 25.0757 64.4602 25.3073C64.1429 25.5303 63.8127 25.719 63.4696 25.8734C63.1265 26.0278 62.7577 26.1436 62.3632 26.2207C61.9772 26.3065 61.5483 26.3494 61.0766 26.3494C60.5191 26.3494 60.0045 26.2765 59.5327 26.1307C59.061 25.9763 58.6536 25.749 58.3105 25.4488C57.9674 25.1486 57.7015 24.7755 57.5128 24.3295C57.3241 23.8835 57.2298 23.3646 57.2298 22.7728C57.2298 22.4383 57.2855 22.1081 57.397 21.7821C57.5086 21.4476 57.6887 21.1303 57.9374 20.8301C58.1947 20.5299 58.5249 20.2468 58.9281 19.981C59.3312 19.7151 59.8244 19.4835 60.4076 19.2862C60.9994 19.0889 61.6856 18.9303 62.4661 18.8102C63.2466 18.6815 64.1386 18.6043 65.1421 18.5786V17.8067C65.1421 16.9232 64.9534 16.2714 64.576 15.8511C64.1986 15.4223 63.654 15.2078 62.9421 15.2078C62.4275 15.2078 61.9986 15.2679 61.6555 15.3879C61.321 15.508 61.0251 15.6453 60.7678 15.7996C60.5105 15.9455 60.2746 16.0784 60.0602 16.1985C59.8544 16.3186 59.6228 16.3786 59.3655 16.3786C59.1425 16.3786 58.9538 16.3228 58.7994 16.2113C58.645 16.0913 58.5206 15.954 58.4263 15.7996L57.8602 14.7833ZM75.4597 26.3494C74.3104 26.3494 73.4269 26.0278 72.8094 25.3845C72.2004 24.7326 71.8959 23.8363 71.8959 22.6956V15.3236H70.545C70.3735 15.3236 70.2277 15.2679 70.1076 15.1564C69.9875 15.0449 69.9275 14.8776 69.9275 14.6546V13.3938L72.0503 13.0464L72.7193 9.44406C72.7622 9.27252 72.8437 9.13957 72.9638 9.04523C73.0838 8.95088 73.2382 8.90371 73.4269 8.90371H75.0737V13.0593H78.5989V15.3236H75.0737V22.4769C75.0737 22.8886 75.1724 23.2102 75.3696 23.4418C75.5755 23.6734 75.8542 23.7892 76.2059 23.7892C76.4032 23.7892 76.5661 23.7677 76.6948 23.7248C76.832 23.6734 76.9478 23.6219 77.0422 23.5704C77.1451 23.519 77.2351 23.4718 77.3123 23.4289C77.3895 23.3775 77.4667 23.3517 77.5439 23.3517C77.6383 23.3517 77.7155 23.3775 77.7755 23.4289C77.8355 23.4718 77.8999 23.5404 77.9685 23.6348L78.9205 25.1786C78.4574 25.5646 77.9256 25.8562 77.3252 26.0535C76.7248 26.2508 76.103 26.3494 75.4597 26.3494ZM89.0371 18.0254C89.0371 17.6137 88.977 17.2277 88.857 16.8675C88.7455 16.4987 88.5739 16.177 88.3423 15.9026C88.1108 15.6281 87.8148 15.4137 87.4546 15.2593C87.103 15.0963 86.6913 15.0148 86.2195 15.0148C85.3018 15.0148 84.577 15.2764 84.0452 15.7996C83.522 16.3228 83.1875 17.0648 83.0417 18.0254H89.0371ZM82.9774 19.9424C83.0289 20.6199 83.1489 21.2075 83.3376 21.7049C83.5263 22.1938 83.7751 22.6012 84.0838 22.9272C84.3926 23.2445 84.7571 23.4847 85.1774 23.6476C85.6063 23.802 86.078 23.8792 86.5926 23.8792C87.1072 23.8792 87.549 23.8192 87.9178 23.6991C88.2952 23.579 88.6211 23.4461 88.8956 23.3003C89.1786 23.1545 89.423 23.0215 89.6289 22.9014C89.8433 22.7814 90.0492 22.7213 90.2464 22.7213C90.5123 22.7213 90.7096 22.82 90.8383 23.0172L91.7517 24.1751C91.4001 24.5868 91.0055 24.9342 90.5681 25.2172C90.1306 25.4917 89.6718 25.7147 89.1915 25.8862C88.7197 26.0492 88.2351 26.165 87.7377 26.2336C87.2488 26.3022 86.7727 26.3365 86.3096 26.3365C85.3918 26.3365 84.5384 26.1864 83.7493 25.8862C82.9602 25.5775 82.2741 25.1272 81.6908 24.5354C81.1076 23.935 80.6487 23.1973 80.3142 22.3225C79.9797 21.439 79.8125 20.4184 79.8125 19.2605C79.8125 18.3599 79.9583 17.5151 80.2499 16.726C80.5415 15.9283 80.9575 15.2378 81.4979 14.6546C82.0468 14.0628 82.7115 13.5953 83.492 13.2523C84.2811 12.9092 85.1688 12.7376 86.1552 12.7376C86.9872 12.7376 87.7548 12.8706 88.4581 13.1365C89.1614 13.4024 89.7661 13.7926 90.2722 14.3072C90.7782 14.8133 91.1728 15.4394 91.4558 16.1856C91.7474 16.9232 91.8932 17.7681 91.8932 18.7201C91.8932 19.2004 91.8418 19.5264 91.7388 19.6979C91.6359 19.8609 91.4386 19.9424 91.147 19.9424H82.9774Z" fill="#02843D"/>
<path d="M100.402 16.3915C101.054 16.3915 101.62 16.31 102.1 16.147C102.589 15.9841 102.988 15.761 103.297 15.478C103.614 15.1864 103.85 14.8433 104.004 14.4488C104.159 14.0542 104.236 13.6211 104.236 13.1493C104.236 12.2059 103.923 11.4811 103.297 10.9751C102.679 10.469 101.731 10.216 100.453 10.216H98.2406V16.3915H100.402ZM109.305 26.1436H106.179C105.587 26.1436 105.158 25.912 104.892 25.4488L100.981 19.4921C100.835 19.2691 100.672 19.1104 100.492 19.016C100.321 18.9217 100.063 18.8745 99.7201 18.8745H98.2406V26.1436H94.7797V7.53996H100.453C101.714 7.53996 102.795 7.6729 103.696 7.93879C104.605 8.1961 105.347 8.56062 105.921 9.03236C106.505 9.5041 106.933 10.0702 107.208 10.7306C107.482 11.3825 107.62 12.1029 107.62 12.892C107.62 13.5182 107.525 14.11 107.337 14.6675C107.156 15.225 106.891 15.731 106.539 16.1856C106.196 16.6402 105.767 17.039 105.252 17.3821C104.746 17.7252 104.167 17.9954 103.515 18.1926C103.738 18.3213 103.944 18.4757 104.133 18.6558C104.322 18.8273 104.493 19.0332 104.648 19.2733L109.305 26.1436ZM117.584 20.5084C116.667 20.5513 115.895 20.6328 115.269 20.7529C114.642 20.8644 114.141 21.0102 113.763 21.1903C113.386 21.3704 113.116 21.5806 112.953 21.8207C112.79 22.0609 112.708 22.3225 112.708 22.6055C112.708 23.163 112.871 23.5619 113.197 23.802C113.532 24.0422 113.965 24.1623 114.497 24.1623C115.148 24.1623 115.71 24.0465 116.182 23.8149C116.662 23.5747 117.13 23.2145 117.584 22.7342V20.5084ZM110.302 14.7833C111.821 13.3938 113.647 12.699 115.783 12.699C116.555 12.699 117.246 12.8277 117.855 13.085C118.463 13.3337 118.978 13.6854 119.398 14.14C119.819 14.586 120.136 15.1221 120.35 15.7482C120.573 16.3743 120.685 17.0605 120.685 17.8067V26.1436H119.244C118.944 26.1436 118.712 26.1007 118.549 26.0149C118.386 25.9206 118.258 25.7361 118.163 25.4617L117.88 24.5096C117.546 24.8098 117.22 25.0757 116.902 25.3073C116.585 25.5303 116.255 25.719 115.912 25.8734C115.569 26.0278 115.2 26.1436 114.805 26.2207C114.419 26.3065 113.991 26.3494 113.519 26.3494C112.961 26.3494 112.447 26.2765 111.975 26.1307C111.503 25.9763 111.096 25.749 110.753 25.4488C110.41 25.1486 110.144 24.7755 109.955 24.3295C109.766 23.8835 109.672 23.3646 109.672 22.7728C109.672 22.4383 109.728 22.1081 109.839 21.7821C109.951 21.4476 110.131 21.1303 110.38 20.8301C110.637 20.5299 110.967 20.2468 111.37 19.981C111.773 19.7151 112.267 19.4835 112.85 19.2862C113.442 19.0889 114.128 18.9303 114.908 18.8102C115.689 18.6815 116.581 18.6043 117.584 18.5786V17.8067C117.584 16.9232 117.396 16.2714 117.018 15.8511C116.641 15.4223 116.096 15.2078 115.384 15.2078C114.87 15.2078 114.441 15.2679 114.098 15.3879C113.763 15.508 113.467 15.6453 113.21 15.7996C112.953 15.9455 112.717 16.0784 112.502 16.1985C112.297 16.3186 112.065 16.3786 111.808 16.3786C111.585 16.3786 111.396 16.3228 111.242 16.2113C111.087 16.0913 110.963 15.954 110.869 15.7996L110.302 14.7833ZM127.902 26.3494C126.753 26.3494 125.869 26.0278 125.252 25.3845C124.643 24.7326 124.338 23.8363 124.338 22.6956V15.3236H122.987C122.816 15.3236 122.67 15.2679 122.55 15.1564C122.43 15.0449 122.37 14.8776 122.37 14.6546V13.3938L124.493 13.0464L125.162 9.44406C125.204 9.27252 125.286 9.13957 125.406 9.04523C125.526 8.95088 125.68 8.90371 125.869 8.90371H127.516V13.0593H131.041V15.3236H127.516V22.4769C127.516 22.8886 127.615 23.2102 127.812 23.4418C128.018 23.6734 128.296 23.7892 128.648 23.7892C128.845 23.7892 129.008 23.7677 129.137 23.7248C129.274 23.6734 129.39 23.6219 129.484 23.5704C129.587 23.519 129.677 23.4718 129.755 23.4289C129.832 23.3775 129.909 23.3517 129.986 23.3517C130.08 23.3517 130.158 23.3775 130.218 23.4289C130.278 23.4718 130.342 23.5404 130.411 23.6348L131.363 25.1786C130.9 25.5646 130.368 25.8562 129.767 26.0535C129.167 26.2508 128.545 26.3494 127.902 26.3494ZM141.479 18.0254C141.479 17.6137 141.419 17.2277 141.299 16.8675C141.188 16.4987 141.016 16.177 140.785 15.9026C140.553 15.6281 140.257 15.4137 139.897 15.2593C139.545 15.0963 139.133 15.0148 138.662 15.0148C137.744 15.0148 137.019 15.2764 136.487 15.7996C135.964 16.3228 135.63 17.0648 135.484 18.0254H141.479ZM135.42 19.9424C135.471 20.6199 135.591 21.2075 135.78 21.7049C135.969 22.1938 136.217 22.6012 136.526 22.9272C136.835 23.2445 137.199 23.4847 137.62 23.6476C138.048 23.802 138.52 23.8792 139.035 23.8792C139.549 23.8792 139.991 23.8192 140.36 23.6991C140.737 23.579 141.063 23.4461 141.338 23.3003C141.621 23.1545 141.865 23.0215 142.071 22.9014C142.286 22.7814 142.491 22.7213 142.689 22.7213C142.955 22.7213 143.152 22.82 143.28 23.0172L144.194 24.1751C143.842 24.5868 143.448 24.9342 143.01 25.2172C142.573 25.4917 142.114 25.7147 141.634 25.8862C141.162 26.0492 140.677 26.165 140.18 26.2336C139.691 26.3022 139.215 26.3365 138.752 26.3365C137.834 26.3365 136.981 26.1864 136.192 25.8862C135.402 25.5775 134.716 25.1272 134.133 24.5354C133.55 23.935 133.091 23.1973 132.756 22.3225C132.422 21.439 132.255 20.4184 132.255 19.2605C132.255 18.3599 132.401 17.5151 132.692 16.726C132.984 15.9283 133.4 15.2378 133.94 14.6546C134.489 14.0628 135.154 13.5953 135.934 13.2523C136.723 12.9092 137.611 12.7376 138.597 12.7376C139.429 12.7376 140.197 12.8706 140.9 13.1365C141.604 13.4024 142.208 13.7926 142.714 14.3072C143.22 14.8133 143.615 15.4394 143.898 16.1856C144.19 16.9232 144.335 17.7681 144.335 18.7201C144.335 19.2004 144.284 19.5264 144.181 19.6979C144.078 19.8609 143.881 19.9424 143.589 19.9424H135.42Z" fill="#4A4A4A"/>
<mask id="mask0" mask-type="alpha" maskUnits="userSpaceOnUse" x="0" y="0" width="32" height="33">
<path fill-rule="evenodd" clip-rule="evenodd" d="M0 16.4365C0 7.65252 7.12082 0.532227 15.9042 0.532227C24.688 0.532227 31.8086 7.65252 31.8086 16.4365C31.8086 25.2202 24.688 32.3408 15.9042 32.3408C7.12082 32.3408 0 25.2202 0 16.4365Z" fill="white"/>
</mask>
<g mask="url(#mask0)">
<path d="M32.3881 0.064592V32.8952H-0.468611V0.064592H32.3881Z" fill="white" stroke="#4A4A4A" stroke-width="0.13309"/>
<path fill-rule="evenodd" clip-rule="evenodd" d="M5.29297 16.4473C5.29297 10.5976 10.035 5.85547 15.8841 5.85547C21.7335 5.85547 26.4757 10.5976 26.4757 16.4473C26.4757 22.2968 21.7335 27.0392 15.8841 27.0392C10.035 27.0392 5.29297 22.2968 5.29297 16.4473Z" fill="white" stroke="#4A4A4A" stroke-width="10.6858"/>
</g>
<mask id="mask1" mask-type="alpha" maskUnits="userSpaceOnUse" x="1" y="2" width="29" height="29">
<path fill-rule="evenodd" clip-rule="evenodd" d="M1.90234 16.5507C1.90234 8.80856 8.18368 2.53223 15.932 2.53223C23.6801 2.53223 29.9614 8.80856 29.9614 16.5507C29.9614 24.2925 23.6801 30.5689 15.932 30.5689C8.18368 30.5689 1.90234 24.2925 1.90234 16.5507Z" fill="white"/>
</mask>
<g mask="url(#mask1)">
<path fill-rule="evenodd" clip-rule="evenodd" d="M1.90234 30.5711H29.9635V2.53125H1.90234V30.5711Z" fill="white"/>
</g>
<mask id="mask2" mask-type="alpha" maskUnits="userSpaceOnUse" x="24" y="25" width="5" height="5">
<path fill-rule="evenodd" clip-rule="evenodd" d="M24.2773 28.7992L27.7552 25.6396L28.7565 29.9047L24.2773 28.7992Z" fill="white"/>
</mask>
<g mask="url(#mask2)">
<path fill-rule="evenodd" clip-rule="evenodd" d="M24.2734 29.9061H28.7544V25.6377H24.2734V29.9061Z" fill="#4A4A4A"/>
</g>
<mask id="mask3" mask-type="alpha" maskUnits="userSpaceOnUse" x="4" y="4" width="24" height="25">
<path fill-rule="evenodd" clip-rule="evenodd" d="M16.0011 4.60059C22.62 4.60059 27.9866 9.96264 27.9866 16.5765C27.9866 22.9485 23.005 28.1563 16.7222 28.529C16.7044 26.5346 16.6972 25.0346 16.6972 24.8201C16.6972 24.1696 17.1365 23.1741 17.4387 22.7845C17.9928 22.0714 18.9505 21.0584 19.0723 20.2704C19.1833 19.5541 19.235 18.6039 19.2134 18.197C19.1852 17.6719 18.5564 8.75378 18.5564 8.75378H18.2183C18.2183 8.75378 18.0488 17.5892 18.0488 17.8408C18.0488 18.2726 17.2795 18.2913 17.2795 17.8503C17.2795 17.6751 16.9322 8.79142 16.9322 8.79142L16.6593 8.80091C16.6593 8.80091 16.2372 17.6639 16.2372 17.8408C16.2372 18.3191 15.5426 18.3097 15.5426 17.8221C15.5426 17.6467 15.1481 8.79142 15.1481 8.79142L14.8853 8.79439C14.8853 8.79439 14.5632 17.6568 14.5662 17.8316C14.5757 18.3476 13.7586 18.3381 13.7586 17.8316C13.7586 17.6817 13.5836 8.74431 13.5836 8.74431H13.2831L12.6042 18.197C12.5852 18.9193 12.5345 19.6596 12.7071 20.2484C13.1019 21.593 14.1415 22.3639 14.4253 22.7938C14.7352 23.2627 15.2232 24.1633 15.214 24.8296C15.2119 24.9793 15.1751 26.4945 15.1259 28.5172C8.91572 28.0689 4.01562 22.8962 4.01562 16.5765C4.01562 9.96264 9.38197 4.60059 16.0011 4.60059Z" fill="white"/>
</mask>
<g mask="url(#mask3)">
<path fill-rule="evenodd" clip-rule="evenodd" d="M4.01172 28.5309H27.9858V4.60059H4.01172V28.5309Z" fill="#02843D"/>
</g>
<path d="M142.484 5.5201C142.583 5.5201 142.669 5.50774 142.742 5.48301C142.816 5.45828 142.876 5.42444 142.923 5.38149C142.971 5.33723 143.007 5.28517 143.031 5.2253C143.054 5.16542 143.066 5.09969 143.066 5.02811C143.066 4.88493 143.018 4.77495 142.923 4.69816C142.829 4.62136 142.686 4.58297 142.492 4.58297H142.156V5.5201H142.484ZM143.835 7H143.361C143.271 7 143.206 6.96486 143.165 6.89457L142.572 5.99063C142.55 5.95678 142.525 5.93271 142.498 5.91839C142.472 5.90407 142.433 5.89691 142.38 5.89691H142.156V7H141.631V4.17687H142.492C142.683 4.17687 142.847 4.19705 142.984 4.2374C143.122 4.27645 143.234 4.33176 143.321 4.40335C143.41 4.47494 143.475 4.56084 143.517 4.66106C143.558 4.75998 143.579 4.86931 143.579 4.98906C143.579 5.08408 143.565 5.17388 143.536 5.25849C143.509 5.34309 143.469 5.41988 143.415 5.48887C143.363 5.55785 143.298 5.61837 143.22 5.67044C143.143 5.7225 143.055 5.7635 142.956 5.79344C142.99 5.81296 143.021 5.83639 143.05 5.86372C143.079 5.88975 143.105 5.92099 143.128 5.95744L143.835 7Z" fill="#4A4A4A"/>
<circle cx="142.5" cy="5.5" r="2.30263" stroke="#4A4A4A" stroke-width="0.394737"/>
</g>
<defs>
<clipPath id="clip0">
<rect width="145" height="33" fill="white"/>
</clipPath>
</defs>
</svg>
