<svg xmlns="http://www.w3.org/2000/svg" xmlns:xlink="http://www.w3.org/1999/xlink" width="282" zoomAndPan="magnify" viewBox="0 0 211.5 45.749998" height="61" preserveAspectRatio="xMidYMid meet" version="1.0"><defs><g/></defs><g fill="#ffffff" fill-opacity="1"><g transform="translate(-1.169284, 34.467969)"><g><path d="M 25.496094 -3.617188 C 25.496094 -4.367188 25.277344 -4.542969 24.527344 -4.542969 L 9.085938 -4.542969 L 9.085938 -13.277344 L 23.867188 -13.277344 C 24.617188 -13.277344 24.792969 -13.5 24.792969 -14.203125 L 24.792969 -16.894531 C 24.792969 -17.644531 24.617188 -17.820312 23.867188 -17.820312 L 9.085938 -17.820312 L 9.085938 -26.292969 L 24.527344 -26.292969 C 25.234375 -26.292969 25.496094 -26.554688 25.496094 -27.261719 L 25.496094 -29.953125 C 25.496094 -30.660156 25.234375 -30.878906 24.527344 -30.878906 L 4.71875 -30.878906 C 4.015625 -30.878906 3.75 -30.660156 3.75 -29.953125 L 3.75 -0.925781 C 3.75 -0.21875 3.96875 0 4.71875 0 L 24.527344 0 C 25.277344 0 25.496094 -0.21875 25.496094 -0.925781 Z M 25.496094 -3.617188 "/></g></g></g><g fill="#ffffff" fill-opacity="1"><g transform="translate(26.931052, 34.467969)"><g><path d="M 21.527344 0 C 22.277344 0 22.453125 -0.21875 22.453125 -0.925781 L 22.453125 -12.261719 C 22.453125 -19.234375 20.953125 -22.9375 12.527344 -22.9375 C 9.265625 -22.9375 5.335938 -22.234375 4.808594 -22.101562 C 4.148438 -21.925781 4.058594 -21.660156 4.234375 -20.953125 L 4.765625 -18.835938 C 4.984375 -18.128906 5.074219 -17.953125 5.824219 -17.953125 C 7.457031 -18.261719 9.792969 -18.617188 12.308594 -18.617188 C 16.367188 -18.617188 17.425781 -16.984375 17.425781 -12.835938 C 15.484375 -13.542969 12.792969 -13.984375 10.941406 -13.984375 C 6.175781 -13.984375 2.382812 -11.691406 2.382812 -6.882812 C 2.382812 -1.941406 6.132812 0.484375 10.101562 0.484375 C 14.691406 0.484375 17.117188 -1.632812 18.351562 -3 L 18.660156 -0.925781 C 18.925781 -0.21875 19.144531 0 19.675781 0 Z M 12.132812 -10.410156 C 14.070312 -10.410156 15.527344 -9.925781 17.425781 -9.265625 L 17.425781 -6.484375 C 16.101562 -4.808594 13.941406 -3.351562 11.691406 -3.351562 C 8.644531 -3.351562 7.367188 -5.160156 7.367188 -6.882812 C 7.367188 -8.910156 8.777344 -10.410156 12.132812 -10.410156 Z M 12.132812 -10.410156 "/></g></g></g><g fill="#ffffff" fill-opacity="1"><g transform="translate(52.252238, 34.467969)"><g><path d="M 19.808594 -19.101562 C 20.070312 -19.71875 20.25 -20.027344 19.542969 -20.46875 C 16.320312 -22.367188 13.324219 -22.9375 11.027344 -22.9375 C 5.691406 -22.9375 2.117188 -20.117188 2.117188 -15.792969 C 2.117188 -11.074219 6.132812 -9.660156 10.71875 -9.042969 C 14.070312 -8.601562 16.011719 -7.894531 16.011719 -6.441406 C 16.011719 -4.71875 14.46875 -3.441406 11.160156 -3.441406 C 8.382812 -3.441406 5.957031 -4.585938 4.324219 -5.734375 C 4.058594 -5.910156 3.882812 -6 3.75 -6 C 3.441406 -6 3.308594 -5.734375 3.089844 -5.335938 L 2.117188 -3.660156 C 1.808594 -3.042969 1.71875 -2.777344 2.339844 -2.339844 C 5.558594 -0.175781 9.132812 0.484375 11.46875 0.484375 C 17.160156 0.484375 20.777344 -2.425781 20.777344 -6.707031 C 20.777344 -11.382812 16.761719 -12.835938 12.175781 -13.410156 C 8.777344 -13.894531 6.882812 -14.335938 6.882812 -16.058594 C 6.882812 -17.867188 8.160156 -19.011719 11.335938 -19.011719 C 14.027344 -19.011719 15.703125 -18.21875 17.601562 -17.027344 C 17.820312 -16.894531 18 -16.808594 18.175781 -16.808594 C 18.441406 -16.808594 18.617188 -17.070312 18.835938 -17.46875 Z M 19.808594 -19.101562 "/></g></g></g><g fill="#ffffff" fill-opacity="1"><g transform="translate(74.794262, 34.467969)"><g><path d="M 19.144531 -22.453125 C 18.527344 -22.453125 18.308594 -22.234375 17.910156 -21.527344 L 11.777344 -7.632812 L 5.648438 -21.527344 C 5.25 -22.234375 5.027344 -22.453125 4.410156 -22.453125 L 0.792969 -22.453125 C 0.132812 -22.453125 0 -22.234375 0.308594 -21.527344 L 9.132812 -2.027344 L 4.585938 8.074219 C 4.234375 8.777344 4.410156 9 5.074219 9 L 8.691406 9 C 9.265625 9 9.527344 8.824219 9.882812 8.074219 L 23.246094 -21.527344 C 23.554688 -22.234375 23.425781 -22.453125 22.761719 -22.453125 Z M 19.144531 -22.453125 "/></g></g></g><g fill="#ffffff" fill-opacity="1"><g transform="translate(98.350905, 34.467969)"><g><path d="M 25.101562 -30.878906 C 24.394531 -30.878906 24.175781 -30.660156 24.175781 -29.953125 L 24.175781 -17.691406 L 9.265625 -17.691406 L 9.265625 -29.953125 C 9.265625 -30.660156 9.042969 -30.878906 8.335938 -30.878906 L 4.851562 -30.878906 C 4.148438 -30.878906 3.925781 -30.660156 3.925781 -29.953125 L 3.925781 -0.925781 C 3.925781 -0.21875 4.148438 0 4.851562 0 L 8.335938 0 C 9.042969 0 9.265625 -0.21875 9.265625 -0.925781 L 9.265625 -13.058594 L 24.175781 -13.058594 L 24.175781 -0.925781 C 24.175781 -0.21875 24.394531 0 25.101562 0 L 28.585938 0 C 29.292969 0 29.511719 -0.21875 29.511719 -0.925781 L 29.511719 -29.953125 C 29.511719 -30.660156 29.292969 -30.878906 28.585938 -30.878906 Z M 25.101562 -30.878906 "/></g></g></g><g fill="#ffffff" fill-opacity="1"><g transform="translate(131.788985, 34.467969)"><g><path d="M 5.46875 -22.453125 C 4.765625 -22.453125 4.542969 -22.234375 4.542969 -21.527344 L 4.542969 -0.925781 C 4.542969 -0.21875 4.765625 0 5.46875 0 L 8.644531 0 C 9.351562 0 9.574219 -0.21875 9.574219 -0.925781 L 9.574219 -21.527344 C 9.574219 -22.234375 9.351562 -22.453125 8.644531 -22.453125 Z M 3.925781 -29.46875 C 3.925781 -27.746094 5.292969 -26.425781 7.015625 -26.425781 C 8.691406 -26.425781 10.101562 -27.746094 10.101562 -29.46875 C 10.101562 -31.1875 8.691406 -32.601562 7.015625 -32.601562 C 5.292969 -32.601562 3.925781 -31.1875 3.925781 -29.46875 Z M 3.925781 -29.46875 "/></g></g></g><g fill="#ffffff" fill-opacity="1"><g transform="translate(145.8171, 34.467969)"><g><path d="M 16.851562 -22.9375 C 11.425781 -22.9375 9.617188 -20.292969 8.382812 -18.085938 L 7.457031 -21.527344 C 7.101562 -22.1875 6.925781 -22.453125 6.351562 -22.453125 L 4.765625 -22.453125 C 4.058594 -22.453125 3.835938 -22.234375 3.835938 -21.527344 L 3.835938 -0.925781 C 3.835938 -0.21875 4.058594 0 4.765625 0 L 7.941406 0 C 8.644531 0 8.867188 -0.21875 8.867188 -0.925781 L 8.867188 -11.074219 C 8.867188 -14.644531 11.117188 -17.953125 16.191406 -17.953125 C 16.894531 -17.953125 17.117188 -18.128906 17.25 -18.835938 L 17.734375 -22.058594 C 17.820312 -22.675781 17.734375 -22.9375 16.851562 -22.9375 Z M 16.851562 -22.9375 "/></g></g></g><g fill="#ffffff" fill-opacity="1"><g transform="translate(164.300683, 34.467969)"><g><path d="M 21.261719 -5.425781 C 21.042969 -5.691406 20.910156 -5.824219 20.734375 -5.824219 C 20.511719 -5.824219 20.292969 -5.691406 19.9375 -5.515625 C 17.644531 -4.191406 15.441406 -3.835938 13.894531 -3.835938 C 10.453125 -3.835938 7.585938 -6.394531 7.101562 -9.574219 L 23.601562 -9.574219 C 24.351562 -9.574219 24.484375 -9.835938 24.484375 -10.542969 C 24.484375 -17.160156 20.734375 -22.9375 13.542969 -22.9375 C 7.101562 -22.9375 1.898438 -17.644531 1.898438 -11.203125 C 1.898438 -4.765625 7.101562 0.484375 13.761719 0.484375 C 16.984375 0.484375 20.644531 -0.617188 22.675781 -2.601562 C 23.070312 -3.042969 22.984375 -3.308594 22.542969 -3.835938 Z M 13.410156 -18.792969 C 17.117188 -18.792969 19.058594 -15.75 19.367188 -12.882812 L 7.191406 -12.882812 C 7.5 -15.75 9.660156 -18.792969 13.410156 -18.792969 Z M 13.410156 -18.792969 "/></g></g></g></svg>